HIERARCHY
ROOT Hips
{
    OFFSET 0.000000 0.000000 0.000000
    CHANNELS 6 Xposition Yposition Zposition Zrotation Xrotation Yrotation
    JOINT Spine
    {
        OFFSET -0.000000 8.104110 0.000000
        CHANNELS 3 Zrotation Xrotation Yrotation
        JOINT Spine1
        {
            OFFSET -0.000000 22.417536 0.000000
            CHANNELS 3 Zrotation Xrotation Yrotation
            JOINT Neck
            {
                OFFSET -0.000000 22.325472 2.029588
                CHANNELS 3 Zrotation Xrotation Yrotation
                JOINT Head
                {
                    OFFSET -0.000000 13.836284 -1.976612
                    CHANNELS 3 Zrotation Xrotation Yrotation
                    End Site
                    {
                        OFFSET -0.000000 24.707651 0.000000
                    }
                }
            }
            JOINT LeftShoulder
            {
                OFFSET 3.973640 20.379602 -0.279950
                CHANNELS 3 Zrotation Xrotation Yrotation
                JOINT LeftArm
                {
                    OFFSET 11.493720 0.000000 0.000000
                    CHANNELS 3 Zrotation Xrotation Yrotation
                    JOINT LeftForeArm
                    {
                        OFFSET 31.336695 0.000000 0.000000
                        CHANNELS 3 Zrotation Xrotation Yrotation
                        JOINT LeftHand
                        {
                            OFFSET 29.043781 0.000000 0.000000
                            CHANNELS 3 Zrotation Xrotation Yrotation
                            End Site
                            {
                                OFFSET 14.824592 0.000000 0.000000
                            }
                        }
                    }
                }
            }
            JOINT RightShoulder
            {
                OFFSET -3.921018 20.379602 -0.279950
                CHANNELS 3 Zrotation Xrotation Yrotation
                JOINT RightArm
                {
                    OFFSET -11.493720 0.000000 0.000000
                    CHANNELS 3 Zrotation Xrotation Yrotation
                    JOINT RightForeArm
                    {
                        OFFSET -31.336695 0.000000 0.000000
                        CHANNELS 3 Zrotation Xrotation Yrotation
                        JOINT RightHand
                        {
                            OFFSET -29.043781 0.000000 0.000000
                            CHANNELS 3 Zrotation Xrotation Yrotation
                            End Site
                            {
                                OFFSET -14.824592 0.000000 0.000000
                            }
                        }
                    }
                }
            }
        }
    }
    JOINT LeftUpLeg
    {
        OFFSET 9.883060 0.000000 0.000000
        CHANNELS 3 Zrotation Xrotation Yrotation
        JOINT LeftLeg
        {
            OFFSET -0.000000 -43.587502 0.000000
            CHANNELS 3 Zrotation Xrotation Yrotation
            JOINT LeftFoot
            {
                OFFSET -0.000000 -41.501083 0.000000
                CHANNELS 3 Zrotation Xrotation Yrotation
                JOINT LeftToeBase
                {
                    OFFSET -0.000000 -6.423989 14.824592
                    CHANNELS 3 Zrotation Xrotation Yrotation
                    End Site
                    {
                        OFFSET -0.000000 0.000000 3.953224
                    }
                }
            }
        }
    }
    JOINT RightUpLeg
    {
        OFFSET -9.883060 0.000000 0.000000
        CHANNELS 3 Zrotation Xrotation Yrotation
        JOINT RightLeg
        {
            OFFSET -0.000000 -43.587502 0.000000
            CHANNELS 3 Zrotation Xrotation Yrotation
            JOINT RightFoot
            {
                OFFSET -0.000000 -41.501083 0.000000
                CHANNELS 3 Zrotation Xrotation Yrotation
                JOINT RightToeBase
                {
                    OFFSET -0.000000 -6.423989 14.824592
                    CHANNELS 3 Zrotation Xrotation Yrotation
                    End Site
                    {
                        OFFSET -0.000000 0.000000 3.953224
                    }
                }
            }
        }
    }
}
MOTION
Frames:    8
Frame Time:    0.008333
4.440061    96.269539    -27.460527    0.712158    -7.075177    -172.524521    -1.196304    -16.652027    -1.644857    3.894542    21.501289    -2.209507    -4.891201    12.347550    5.321331    -1.301643    -3.744297    5.489913    -3.682893    8.690507    -2.951908    -38.065609    60.453621    -23.362928    5.455433    -15.236803    -36.886124    3.563822    -13.409547    2.087373    -1.169234    16.232378    1.404776    39.255348    55.266502    28.687508    -14.739107    -15.947754    31.154560    4.786046    -11.774323    3.980157    5.072449    -13.860573    1.302741    2.269197    23.100157    -5.651353    -13.214180    -0.060262    10.621342    0.000000    0.000000    0.000000    -8.064573    -3.737243    -13.197009    6.088009    14.189226    4.573162    8.716327    -6.302924    -17.246614    0.000000    0.000000    0.000000    
4.473918    97.108360    -27.635714    0.577495    -7.337651    -172.639069    -1.155161    -17.276403    -1.555173    3.255981    21.936012    -2.010898    -4.593805    11.250435    5.172704    -1.148479    -2.352489    5.411650    -3.145055    8.579235    -2.613516    -39.562683    60.421864    -21.816555    5.077114    -15.311943    -37.449520    3.338990    -13.607019    1.316969    -0.953550    16.070108    0.628565    38.772400    56.577644    28.985836    -15.123793    -17.065145    32.534470    5.763742    -12.505964    5.475672    4.937232    -13.087800    0.655698    2.066024    20.980553    -4.107446    -14.077361    2.891299    10.544791    0.000000    0.000000    0.000000    -7.831507    -3.120782    -12.301757    5.830065    12.048165    3.246379    9.916665    -3.503460    -17.224026    0.000000    0.000000    0.000000    
4.480260    98.001587    -27.848131    0.433474    -7.635639    -172.554001    -1.162814    -17.986490    -1.659725    2.869141    22.264126    -2.040423    -4.618576    10.673060    4.962821    -1.241206    -1.638439    5.211664    -3.119711    8.556215    -2.096336    -40.671577    60.671684    -20.228260    5.069418    -15.473309    -38.133492    2.371499    -13.759961    0.827193    -1.377066    15.983294    0.343336    39.262997    57.660778    28.803782    -16.009096    -17.499296    33.453499    6.801475    -12.417382    7.006615    4.700505    -12.421352    -0.232315    1.903745    18.914034    -2.413034    -14.817735    5.959909    10.610203    0.000000    0.000000    0.000000    -7.655342    -2.397912    -11.696705    5.555952    9.758594    1.874411    11.062281    -0.442668    -17.194975    0.000000    0.000000    0.000000    
4.514990    98.771378    -28.016726    0.234592    -7.717842    -172.577637    -1.075569    -18.354649    -1.670631    2.105739    22.609613    -1.917895    -4.074475    10.107306    4.591627    -1.762050    -1.122176    4.744584    -2.603757    8.509602    -1.875732    -42.287880    60.553192    -18.486677    5.071176    -15.207795    -38.547077    2.213406    -13.489289    -0.043550    -1.109952    16.041424    0.029457    40.021427    57.516857    28.091881    -16.793196    -17.040195    34.738667    7.309158    -11.431061    7.741849    4.461363    -11.644155    -0.880092    1.864462    17.033522    -0.927760    -15.509500    8.733624    10.845362    0.000000    0.000000    0.000000    -7.538069    -1.650692    -11.170465    5.230304    7.775019    0.453608    12.266329    2.343507    -16.973843    0.000000    0.000000    0.000000    
4.529133    99.562660    -28.117920    0.057715    -8.037319    -172.733444    -1.072828    -18.835985    -1.604196    1.723553    22.809187    -1.773936    -4.172018    9.051083    4.457668    -1.654883    -0.044537    4.682981    -2.321545    8.484785    -1.635775    -43.708988    60.334698    -16.923189    4.947197    -14.775910    -39.033932    2.901975    -13.087902    -0.620315    -1.275318    16.295952    -0.227350    39.599079    58.546474    28.396395    -18.462770    -17.187931    35.809967    7.887390    -10.861116    7.278487    4.179452    -11.230687    -1.379634    1.922437    15.455400    0.301783    -16.636335    11.050129    11.814796    0.000000    0.000000    0.000000    -7.447843    -1.259890    -10.547841    4.851009    5.836947    -1.399691    13.291638    5.385424    -16.448910    0.000000    0.000000    0.000000    
4.544632    100.321175    -28.263510    -0.212627    -7.999092    -172.851563    -1.100560    -19.113159    -1.593926    1.215850    23.291615    -1.659233    -3.717456    8.610707    4.504543    -2.499156    -0.110515    4.594286    -2.003983    8.433401    -1.458018    -44.857376    60.395821    -15.543313    5.076262    -14.843529    -39.565319    2.767212    -13.086305    -0.685307    -1.469411    16.413757    0.114240    41.685173    57.811592    26.568434    -19.529240    -16.539095    37.221706    7.941411    -9.573787    7.294725    3.891504    -10.496125    -1.878697    1.909569    14.113788    0.830101    -17.775667    12.805547    13.309066    0.000000    0.000000    0.000000    -7.433299    -0.555634    -10.077394    4.452059    4.168118    -2.547241    14.478993    7.884039    -16.731058    0.000000    0.000000    0.000000    
4.557979    100.960938    -28.358793    -0.366418    -7.969317    -172.778641    -1.203153    -19.219866    -1.570423    0.988926    23.593046    -1.573260    -3.659419    7.667645    3.891664    -2.390710    0.533945    4.012426    -1.646013    8.740219    -1.521282    -45.614719    59.802879    -14.791357    4.813330    -14.669716    -40.051891    3.054688    -12.991431    -1.022750    -1.420721    16.399570    -0.033427    42.514004    58.004749    25.493584    -20.860893    -16.378714    38.568432    7.990810    -8.734825    6.393752    3.662729    -10.102347    -2.353906    1.982825    13.382293    1.266564    -18.657068    14.017102    14.226440    0.000000    0.000000    0.000000    -7.341991    -0.044849    -10.010530    4.058967    3.023252    -3.302773    15.873613    9.518799    -17.472599    0.000000    0.000000    0.000000    
4.593801    101.554443    -28.403811    -0.420906    -8.062995    -172.817001    -1.269036    -19.367258    -1.499715    1.017505    23.773628    -1.497368    -3.512911    7.191018    3.699852    -2.887447    0.387020    3.744076    -1.356326    8.838020    -1.638605    -46.654972    59.700741    -13.580973    4.674320    -14.831127    -40.895817    3.531950    -13.166570    -0.926096    -1.688202    16.833572    -0.096807    43.229370    57.641899    24.859772    -22.006750    -16.225729    39.749180    8.601192    -7.873108    6.396537    3.551864    -9.966666    -2.723688    1.910604    12.900719    1.908744    -19.090443    15.131680    14.908064    0.000000    0.000000    0.000000    -7.212813    0.201621    -9.858144    3.816538    2.139901    -3.710396    17.427700    10.594792    -18.923143    0.000000    0.000000    0.000000    
